<mxfile host="app.diagrams.net" modified="2023-08-31T00:32:17.534Z" agent="Mozilla/5.0 (Windows NT 10.0; Win64; x64) AppleWebKit/537.36 (KHTML, like Gecko) Chrome/116.0.0.0 Safari/537.36 Edg/116.0.1938.62" etag="Fbf1J_Q7c4hRbP9XNPzp" version="21.7.1" type="github">
  <diagram name="PÃ¡gina-1" id="7aY0aSG2teV5cYWupJm-">
    <mxGraphModel dx="1329" dy="755" grid="1" gridSize="10" guides="1" tooltips="1" connect="1" arrows="1" fold="1" page="1" pageScale="1" pageWidth="827" pageHeight="1169" math="0" shadow="0">
      <root>
        <mxCell id="0" />
        <mxCell id="1" parent="0" />
        <mxCell id="tin_C80cwcEMdFTBeuug-3" style="edgeStyle=orthogonalEdgeStyle;rounded=0;orthogonalLoop=1;jettySize=auto;html=1;entryX=0;entryY=0.5;entryDx=0;entryDy=0;" edge="1" parent="1" source="tin_C80cwcEMdFTBeuug-1" target="tin_C80cwcEMdFTBeuug-2">
          <mxGeometry relative="1" as="geometry" />
        </mxCell>
        <mxCell id="tin_C80cwcEMdFTBeuug-42" style="edgeStyle=orthogonalEdgeStyle;rounded=0;orthogonalLoop=1;jettySize=auto;html=1;" edge="1" parent="1" source="tin_C80cwcEMdFTBeuug-1" target="tin_C80cwcEMdFTBeuug-40">
          <mxGeometry relative="1" as="geometry" />
        </mxCell>
        <mxCell id="tin_C80cwcEMdFTBeuug-43" style="edgeStyle=orthogonalEdgeStyle;rounded=0;orthogonalLoop=1;jettySize=auto;html=1;entryX=0;entryY=0.5;entryDx=0;entryDy=0;" edge="1" parent="1" source="tin_C80cwcEMdFTBeuug-1" target="tin_C80cwcEMdFTBeuug-41">
          <mxGeometry relative="1" as="geometry" />
        </mxCell>
        <mxCell id="tin_C80cwcEMdFTBeuug-1" value="Bodeguero" style="shape=umlActor;verticalLabelPosition=bottom;verticalAlign=top;html=1;" vertex="1" parent="1">
          <mxGeometry x="80" y="180" width="30" height="60" as="geometry" />
        </mxCell>
        <mxCell id="tin_C80cwcEMdFTBeuug-2" value="Recibir Producto" style="ellipse;whiteSpace=wrap;html=1;" vertex="1" parent="1">
          <mxGeometry x="274" y="90" width="140" height="70" as="geometry" />
        </mxCell>
        <mxCell id="tin_C80cwcEMdFTBeuug-4" value="Revisar OC" style="ellipse;whiteSpace=wrap;html=1;" vertex="1" parent="1">
          <mxGeometry x="510" y="90" width="140" height="70" as="geometry" />
        </mxCell>
        <mxCell id="tin_C80cwcEMdFTBeuug-5" value="" style="endArrow=open;endFill=1;endSize=12;html=1;rounded=0;exitX=0;exitY=0.5;exitDx=0;exitDy=0;entryX=1;entryY=0.5;entryDx=0;entryDy=0;" edge="1" parent="1" source="tin_C80cwcEMdFTBeuug-4" target="tin_C80cwcEMdFTBeuug-2">
          <mxGeometry width="160" relative="1" as="geometry">
            <mxPoint x="310" y="260" as="sourcePoint" />
            <mxPoint x="410" y="180" as="targetPoint" />
            <Array as="points" />
          </mxGeometry>
        </mxCell>
        <mxCell id="tin_C80cwcEMdFTBeuug-6" value="Include" style="edgeLabel;html=1;align=center;verticalAlign=middle;resizable=0;points=[];" vertex="1" connectable="0" parent="tin_C80cwcEMdFTBeuug-5">
          <mxGeometry x="-0.0833" relative="1" as="geometry">
            <mxPoint as="offset" />
          </mxGeometry>
        </mxCell>
        <mxCell id="tin_C80cwcEMdFTBeuug-9" value="Rechazar Producto" style="ellipse;whiteSpace=wrap;html=1;" vertex="1" parent="1">
          <mxGeometry x="510" y="200" width="140" height="70" as="geometry" />
        </mxCell>
        <mxCell id="tin_C80cwcEMdFTBeuug-10" value="Extends" style="endArrow=block;endSize=16;endFill=0;html=1;rounded=0;entryX=0;entryY=0.5;entryDx=0;entryDy=0;" edge="1" parent="1" target="tin_C80cwcEMdFTBeuug-9">
          <mxGeometry width="160" relative="1" as="geometry">
            <mxPoint x="340" y="160" as="sourcePoint" />
            <mxPoint x="500" y="160" as="targetPoint" />
          </mxGeometry>
        </mxCell>
        <mxCell id="tin_C80cwcEMdFTBeuug-13" value="" style="edgeStyle=orthogonalEdgeStyle;rounded=0;orthogonalLoop=1;jettySize=auto;html=1;" edge="1" parent="1" source="tin_C80cwcEMdFTBeuug-11" target="tin_C80cwcEMdFTBeuug-12">
          <mxGeometry relative="1" as="geometry" />
        </mxCell>
        <mxCell id="tin_C80cwcEMdFTBeuug-17" style="edgeStyle=orthogonalEdgeStyle;rounded=0;orthogonalLoop=1;jettySize=auto;html=1;entryX=0;entryY=0.5;entryDx=0;entryDy=0;" edge="1" parent="1" source="tin_C80cwcEMdFTBeuug-11" target="tin_C80cwcEMdFTBeuug-14">
          <mxGeometry relative="1" as="geometry" />
        </mxCell>
        <mxCell id="tin_C80cwcEMdFTBeuug-30" style="edgeStyle=orthogonalEdgeStyle;rounded=0;orthogonalLoop=1;jettySize=auto;html=1;entryX=0;entryY=0.5;entryDx=0;entryDy=0;" edge="1" parent="1" source="tin_C80cwcEMdFTBeuug-11" target="tin_C80cwcEMdFTBeuug-28">
          <mxGeometry relative="1" as="geometry" />
        </mxCell>
        <mxCell id="tin_C80cwcEMdFTBeuug-11" value="Vendedor" style="shape=umlActor;verticalLabelPosition=bottom;verticalAlign=top;html=1;" vertex="1" parent="1">
          <mxGeometry x="60" y="340" width="30" height="60" as="geometry" />
        </mxCell>
        <mxCell id="tin_C80cwcEMdFTBeuug-12" value="Vender Producto" style="ellipse;whiteSpace=wrap;html=1;verticalAlign=top;" vertex="1" parent="1">
          <mxGeometry x="390" y="350" width="80" height="40" as="geometry" />
        </mxCell>
        <mxCell id="tin_C80cwcEMdFTBeuug-14" value="Generar Despacho" style="ellipse;whiteSpace=wrap;html=1;verticalAlign=top;" vertex="1" parent="1">
          <mxGeometry x="390" y="425" width="80" height="40" as="geometry" />
        </mxCell>
        <mxCell id="tin_C80cwcEMdFTBeuug-22" value="" style="edgeStyle=orthogonalEdgeStyle;rounded=0;orthogonalLoop=1;jettySize=auto;html=1;" edge="1" parent="1" source="tin_C80cwcEMdFTBeuug-24" target="tin_C80cwcEMdFTBeuug-25">
          <mxGeometry relative="1" as="geometry" />
        </mxCell>
        <mxCell id="tin_C80cwcEMdFTBeuug-27" style="edgeStyle=orthogonalEdgeStyle;rounded=0;orthogonalLoop=1;jettySize=auto;html=1;entryX=1;entryY=0.5;entryDx=0;entryDy=0;" edge="1" parent="1" source="tin_C80cwcEMdFTBeuug-24" target="tin_C80cwcEMdFTBeuug-26">
          <mxGeometry relative="1" as="geometry" />
        </mxCell>
        <mxCell id="tin_C80cwcEMdFTBeuug-24" value="Cliente" style="shape=umlActor;verticalLabelPosition=bottom;verticalAlign=top;html=1;" vertex="1" parent="1">
          <mxGeometry x="910" y="350" width="30" height="60" as="geometry" />
        </mxCell>
        <mxCell id="tin_C80cwcEMdFTBeuug-25" value="Solicitar Producto" style="ellipse;whiteSpace=wrap;html=1;verticalAlign=top;" vertex="1" parent="1">
          <mxGeometry x="650" y="360" width="80" height="40" as="geometry" />
        </mxCell>
        <mxCell id="tin_C80cwcEMdFTBeuug-26" value="Pagar Producto" style="ellipse;whiteSpace=wrap;html=1;verticalAlign=top;" vertex="1" parent="1">
          <mxGeometry x="650" y="425" width="80" height="40" as="geometry" />
        </mxCell>
        <mxCell id="tin_C80cwcEMdFTBeuug-29" style="edgeStyle=orthogonalEdgeStyle;rounded=0;orthogonalLoop=1;jettySize=auto;html=1;entryX=0;entryY=0.5;entryDx=0;entryDy=0;" edge="1" parent="1" source="tin_C80cwcEMdFTBeuug-28" target="tin_C80cwcEMdFTBeuug-26">
          <mxGeometry relative="1" as="geometry" />
        </mxCell>
        <mxCell id="tin_C80cwcEMdFTBeuug-28" value="Generar NDV" style="ellipse;whiteSpace=wrap;html=1;verticalAlign=top;" vertex="1" parent="1">
          <mxGeometry x="390" y="510" width="80" height="40" as="geometry" />
        </mxCell>
        <mxCell id="tin_C80cwcEMdFTBeuug-37" style="edgeStyle=orthogonalEdgeStyle;rounded=0;orthogonalLoop=1;jettySize=auto;html=1;entryX=1;entryY=0.5;entryDx=0;entryDy=0;" edge="1" parent="1" source="tin_C80cwcEMdFTBeuug-31" target="tin_C80cwcEMdFTBeuug-34">
          <mxGeometry relative="1" as="geometry" />
        </mxCell>
        <mxCell id="tin_C80cwcEMdFTBeuug-67" style="edgeStyle=orthogonalEdgeStyle;rounded=0;orthogonalLoop=1;jettySize=auto;html=1;entryX=1;entryY=0.5;entryDx=0;entryDy=0;" edge="1" parent="1" source="tin_C80cwcEMdFTBeuug-31" target="tin_C80cwcEMdFTBeuug-33">
          <mxGeometry relative="1" as="geometry" />
        </mxCell>
        <mxCell id="tin_C80cwcEMdFTBeuug-31" value="Facturador" style="shape=umlActor;verticalLabelPosition=bottom;verticalAlign=top;html=1;" vertex="1" parent="1">
          <mxGeometry x="910" y="640" width="30" height="60" as="geometry" />
        </mxCell>
        <mxCell id="tin_C80cwcEMdFTBeuug-36" style="edgeStyle=orthogonalEdgeStyle;rounded=0;orthogonalLoop=1;jettySize=auto;html=1;" edge="1" parent="1" source="tin_C80cwcEMdFTBeuug-33" target="tin_C80cwcEMdFTBeuug-28">
          <mxGeometry relative="1" as="geometry" />
        </mxCell>
        <mxCell id="tin_C80cwcEMdFTBeuug-33" value="Emitir Factura" style="ellipse;whiteSpace=wrap;html=1;verticalAlign=top;" vertex="1" parent="1">
          <mxGeometry x="630" y="560" width="80" height="40" as="geometry" />
        </mxCell>
        <mxCell id="tin_C80cwcEMdFTBeuug-38" style="edgeStyle=orthogonalEdgeStyle;rounded=0;orthogonalLoop=1;jettySize=auto;html=1;exitX=0;exitY=0.5;exitDx=0;exitDy=0;entryX=0.5;entryY=1;entryDx=0;entryDy=0;" edge="1" parent="1" source="tin_C80cwcEMdFTBeuug-34" target="tin_C80cwcEMdFTBeuug-28">
          <mxGeometry relative="1" as="geometry" />
        </mxCell>
        <mxCell id="tin_C80cwcEMdFTBeuug-39" value="Include" style="edgeLabel;html=1;align=center;verticalAlign=middle;resizable=0;points=[];" vertex="1" connectable="0" parent="tin_C80cwcEMdFTBeuug-38">
          <mxGeometry x="0.2857" y="4" relative="1" as="geometry">
            <mxPoint as="offset" />
          </mxGeometry>
        </mxCell>
        <mxCell id="tin_C80cwcEMdFTBeuug-34" value="Emitir boleta" style="ellipse;whiteSpace=wrap;html=1;verticalAlign=top;" vertex="1" parent="1">
          <mxGeometry x="540" y="650" width="80" height="40" as="geometry" />
        </mxCell>
        <mxCell id="tin_C80cwcEMdFTBeuug-40" value="Entregar Producto" style="ellipse;whiteSpace=wrap;html=1;" vertex="1" parent="1">
          <mxGeometry x="286" y="250" width="104" height="50" as="geometry" />
        </mxCell>
        <mxCell id="tin_C80cwcEMdFTBeuug-41" value="Agregar Producto" style="ellipse;whiteSpace=wrap;html=1;" vertex="1" parent="1">
          <mxGeometry x="170" y="290" width="104" height="50" as="geometry" />
        </mxCell>
        <mxCell id="tin_C80cwcEMdFTBeuug-62" style="edgeStyle=orthogonalEdgeStyle;rounded=0;orthogonalLoop=1;jettySize=auto;html=1;entryX=0.456;entryY=0.962;entryDx=0;entryDy=0;entryPerimeter=0;" edge="1" parent="1" source="tin_C80cwcEMdFTBeuug-44" target="tin_C80cwcEMdFTBeuug-58">
          <mxGeometry relative="1" as="geometry" />
        </mxCell>
        <mxCell id="tin_C80cwcEMdFTBeuug-44" value="Boleta" style="swimlane;fontStyle=1;align=center;verticalAlign=top;childLayout=stackLayout;horizontal=1;startSize=26;horizontalStack=0;resizeParent=1;resizeParentMax=0;resizeLast=0;collapsible=1;marginBottom=0;whiteSpace=wrap;html=1;" vertex="1" parent="1">
          <mxGeometry x="20" y="880" width="160" height="34" as="geometry" />
        </mxCell>
        <mxCell id="tin_C80cwcEMdFTBeuug-46" value="" style="line;strokeWidth=1;fillColor=none;align=left;verticalAlign=middle;spacingTop=-1;spacingLeft=3;spacingRight=3;rotatable=0;labelPosition=right;points=[];portConstraint=eastwest;strokeColor=inherit;" vertex="1" parent="tin_C80cwcEMdFTBeuug-44">
          <mxGeometry y="26" width="160" height="8" as="geometry" />
        </mxCell>
        <mxCell id="tin_C80cwcEMdFTBeuug-63" style="edgeStyle=orthogonalEdgeStyle;rounded=0;orthogonalLoop=1;jettySize=auto;html=1;entryX=0.45;entryY=1.038;entryDx=0;entryDy=0;entryPerimeter=0;" edge="1" parent="1" source="tin_C80cwcEMdFTBeuug-49" target="tin_C80cwcEMdFTBeuug-58">
          <mxGeometry relative="1" as="geometry" />
        </mxCell>
        <mxCell id="tin_C80cwcEMdFTBeuug-49" value="Boleta" style="swimlane;fontStyle=1;align=center;verticalAlign=top;childLayout=stackLayout;horizontal=1;startSize=26;horizontalStack=0;resizeParent=1;resizeParentMax=0;resizeLast=0;collapsible=1;marginBottom=0;whiteSpace=wrap;html=1;" vertex="1" parent="1">
          <mxGeometry x="220" y="880" width="160" height="34" as="geometry" />
        </mxCell>
        <mxCell id="tin_C80cwcEMdFTBeuug-52" value="" style="line;strokeWidth=1;fillColor=none;align=left;verticalAlign=middle;spacingTop=-1;spacingLeft=3;spacingRight=3;rotatable=0;labelPosition=right;points=[];portConstraint=eastwest;strokeColor=inherit;" vertex="1" parent="tin_C80cwcEMdFTBeuug-49">
          <mxGeometry y="26" width="160" height="8" as="geometry" />
        </mxCell>
        <mxCell id="tin_C80cwcEMdFTBeuug-54" value="DocTributario" style="swimlane;fontStyle=1;align=center;verticalAlign=top;childLayout=stackLayout;horizontal=1;startSize=26;horizontalStack=0;resizeParent=1;resizeParentMax=0;resizeLast=0;collapsible=1;marginBottom=0;whiteSpace=wrap;html=1;" vertex="1" parent="1">
          <mxGeometry x="142" y="680" width="160" height="112" as="geometry" />
        </mxCell>
        <mxCell id="tin_C80cwcEMdFTBeuug-55" value="+ Codigo: numeric" style="text;strokeColor=none;fillColor=none;align=left;verticalAlign=top;spacingLeft=4;spacingRight=4;overflow=hidden;rotatable=0;points=[[0,0.5],[1,0.5]];portConstraint=eastwest;whiteSpace=wrap;html=1;" vertex="1" parent="tin_C80cwcEMdFTBeuug-54">
          <mxGeometry y="26" width="160" height="26" as="geometry" />
        </mxCell>
        <mxCell id="tin_C80cwcEMdFTBeuug-56" value="+ Rut: numeric" style="text;strokeColor=none;fillColor=none;align=left;verticalAlign=top;spacingLeft=4;spacingRight=4;overflow=hidden;rotatable=0;points=[[0,0.5],[1,0.5]];portConstraint=eastwest;whiteSpace=wrap;html=1;" vertex="1" parent="tin_C80cwcEMdFTBeuug-54">
          <mxGeometry y="52" width="160" height="26" as="geometry" />
        </mxCell>
        <mxCell id="tin_C80cwcEMdFTBeuug-57" value="" style="line;strokeWidth=1;fillColor=none;align=left;verticalAlign=middle;spacingTop=-1;spacingLeft=3;spacingRight=3;rotatable=0;labelPosition=right;points=[];portConstraint=eastwest;strokeColor=inherit;" vertex="1" parent="tin_C80cwcEMdFTBeuug-54">
          <mxGeometry y="78" width="160" height="8" as="geometry" />
        </mxCell>
        <mxCell id="tin_C80cwcEMdFTBeuug-58" value="+ emitir(type): type" style="text;strokeColor=none;fillColor=none;align=left;verticalAlign=top;spacingLeft=4;spacingRight=4;overflow=hidden;rotatable=0;points=[[0,0.5],[1,0.5]];portConstraint=eastwest;whiteSpace=wrap;html=1;" vertex="1" parent="tin_C80cwcEMdFTBeuug-54">
          <mxGeometry y="86" width="160" height="26" as="geometry" />
        </mxCell>
        <mxCell id="tin_C80cwcEMdFTBeuug-66" style="edgeStyle=orthogonalEdgeStyle;rounded=0;orthogonalLoop=1;jettySize=auto;html=1;exitX=0.5;exitY=0;exitDx=0;exitDy=0;entryX=0.45;entryY=1;entryDx=0;entryDy=0;entryPerimeter=0;" edge="1" parent="1" source="tin_C80cwcEMdFTBeuug-64" target="tin_C80cwcEMdFTBeuug-58">
          <mxGeometry relative="1" as="geometry" />
        </mxCell>
        <mxCell id="tin_C80cwcEMdFTBeuug-64" value="NDV" style="swimlane;fontStyle=1;align=center;verticalAlign=top;childLayout=stackLayout;horizontal=1;startSize=26;horizontalStack=0;resizeParent=1;resizeParentMax=0;resizeLast=0;collapsible=1;marginBottom=0;whiteSpace=wrap;html=1;" vertex="1" parent="1">
          <mxGeometry x="420" y="880" width="160" height="34" as="geometry" />
        </mxCell>
        <mxCell id="tin_C80cwcEMdFTBeuug-65" value="" style="line;strokeWidth=1;fillColor=none;align=left;verticalAlign=middle;spacingTop=-1;spacingLeft=3;spacingRight=3;rotatable=0;labelPosition=right;points=[];portConstraint=eastwest;strokeColor=inherit;" vertex="1" parent="tin_C80cwcEMdFTBeuug-64">
          <mxGeometry y="26" width="160" height="8" as="geometry" />
        </mxCell>
      </root>
    </mxGraphModel>
  </diagram>
</mxfile>
